<?xml version="1.0" encoding="UTF-8"?>
<svg id="Layer_1" data-name="Layer 1" xmlns="http://www.w3.org/2000/svg" viewBox="0 0 340 45">
  <defs>
    <style>
      .cls-1 {
        fill: #fcffeb;
      }
    </style>
  </defs>
  <path class="cls-1" d="M2.95,11.37h3.66v4.92c1.05-3.28,3.53-5.42,7.35-5.42,3.61,0,5.97,2.14,6.47,5.67,1.01-3.36,3.53-5.67,7.44-5.67,4.2,0,6.59,2.77,6.59,7.18v14.74h-3.65v-13.4c0-3.36-1.47-5.25-4.37-5.25-3.49,0-5.88,2.73-5.88,6.34v12.31h-3.66v-13.4c0-3.36-1.47-5.25-4.37-5.25-3.49,0-5.92,2.73-5.92,6.34v12.31h-3.66V11.37Z"/>
  <path class="cls-1" d="M51.5,30.19c-1.22,1.93-3.44,3.07-6.26,3.07-3.95,0-6.93-2.31-6.93-6.47,0-4.41,3.23-6.51,7.23-6.51,2.39,0,4.54.8,5.8,2.44v-4.41c0-2.77-1.51-4.29-4.62-4.29-2.69,0-4.24,1.05-4.66,3.36h-3.24c.42-4.41,3.53-6.47,8.19-6.47,5.17,0,7.98,2.56,7.98,7.35v14.53h-3.23l-.25-2.6ZM46.33,30.27c2.9,0,5-1.51,5-3.82,0-2.18-1.93-3.61-4.79-3.61-2.6,0-4.45,1.18-4.45,3.74s1.85,3.7,4.24,3.7Z"/>
  <path class="cls-1" d="M58.93,22.12c0-6.68,3.74-11.17,10.8-11.17,5.71,0,9.66,3.07,9.75,9.16h-3.36c-.25-3.78-2.65-5.84-6.51-5.84-5.21,0-7.39,3.78-7.01,8.82,1.13-2.77,3.53-3.78,6.01-3.78,1.18,0,2.44.21,3.57.71v3.15c-1.3-.59-2.69-.88-4.03-.88-2.65,0-4.87,1.22-4.87,3.23,0,2.23,2.52,4.45,6.89,4.45,3.11,0,5.63-1.09,8.28-3.02v3.49c-1.89,1.43-4.71,2.81-8.7,2.81-7.18,0-10.8-4.62-10.8-11.13Z"/>
  <path class="cls-1" d="M81.91,20.19c0-5.29,3.82-9.2,9.49-9.2,2.52,0,4.66.76,6.3,2.1l1.64-3.7h3.53l-2.9,6.51c.63,1.26.97,2.69.97,4.24,0,3.32-1.51,6.09-4.12,7.69,2.39,1.13,3.95,3.23,3.95,6.3,0,4.45-3.32,7.48-9.37,7.48-2.94,0-6.09-.67-8.82-2.02v-3.49c2.6,1.3,5.46,2.27,8.57,2.27,4.16,0,5.88-1.85,5.88-4.54,0-3.23-2.44-4.58-5.38-4.58h-.29c-5.59,0-9.45-3.78-9.45-9.07ZM91.44,26.28c3.53,0,5.88-2.35,5.88-6.09s-2.35-6.05-5.88-6.05-5.92,2.35-5.92,6.09,2.39,6.05,5.92,6.05Z"/>
  <path class="cls-1" d="M117.73,30.19c-1.22,1.93-3.44,3.07-6.26,3.07-3.95,0-6.93-2.31-6.93-6.47,0-4.41,3.23-6.51,7.23-6.51,2.39,0,4.54.8,5.8,2.44v-4.41c0-2.77-1.51-4.29-4.62-4.29-2.69,0-4.24,1.05-4.66,3.36h-3.24c.42-4.41,3.53-6.47,8.19-6.47,5.17,0,7.98,2.56,7.98,7.35v14.53h-3.23l-.25-2.6ZM112.57,30.27c2.9,0,5-1.51,5-3.82,0-2.18-1.93-3.61-4.79-3.61-2.6,0-4.45,1.18-4.45,3.74s1.85,3.7,4.24,3.7Z"/>
  <path class="cls-1" d="M126.34,11.37h3.65v4.87c1.09-3.19,3.57-5.38,7.35-5.38,4.16,0,6.59,2.77,6.59,7.18v14.74h-3.65v-13.4c0-3.36-1.47-5.25-4.37-5.25-3.49,0-5.92,2.73-5.92,6.34v12.31h-3.65V11.37Z"/>
  <path class="cls-1" d="M160.99,30.19c-1.22,1.93-3.45,3.07-6.26,3.07-3.95,0-6.93-2.31-6.93-6.47,0-4.41,3.23-6.51,7.22-6.51,2.39,0,4.54.8,5.8,2.44v-4.41c0-2.77-1.51-4.29-4.62-4.29-2.69,0-4.24,1.05-4.66,3.36h-3.23c.42-4.41,3.53-6.47,8.19-6.47,5.17,0,7.98,2.56,7.98,7.35v14.53h-3.23l-.25-2.6ZM155.83,30.27c2.9,0,5-1.51,5-3.82,0-2.18-1.93-3.61-4.79-3.61-2.6,0-4.45,1.18-4.45,3.74s1.85,3.7,4.24,3.7Z"/>
  <path class="cls-1" d="M169.6,3.39h3.66v29.41h-3.66V3.39Z"/>
  <path class="cls-1" d="M178.67,11.37h3.66v4.92c1.05-3.28,3.53-5.42,7.35-5.42,3.61,0,5.97,2.14,6.47,5.67,1.01-3.36,3.53-5.67,7.44-5.67,4.2,0,6.59,2.77,6.59,7.18v14.74h-3.65v-13.4c0-3.36-1.47-5.25-4.37-5.25-3.49,0-5.88,2.73-5.88,6.34v12.31h-3.66v-13.4c0-3.36-1.47-5.25-4.37-5.25-3.49,0-5.92,2.73-5.92,6.34v12.31h-3.66V11.37Z"/>
  <path class="cls-1" d="M217.14,3.39c1.34,0,2.31.92,2.31,2.31s-.97,2.31-2.31,2.31-2.31-.97-2.31-2.31.97-2.31,2.31-2.31ZM215.3,11.37h3.66v21.42h-3.66V11.37Z"/>
  <path class="cls-1" d="M224.37,11.37h3.66v5.92c1.05-3.99,3.4-6.17,6.85-6.22v3.99c-3.44-.29-6.85,2.18-6.85,7.77v9.96h-3.66V11.37Z"/>
  <path class="cls-1" d="M249.53,30.19c-1.22,1.93-3.44,3.07-6.26,3.07-3.95,0-6.93-2.31-6.93-6.47,0-4.41,3.23-6.51,7.23-6.51,2.39,0,4.54.8,5.8,2.44v-4.41c0-2.77-1.51-4.29-4.62-4.29-2.69,0-4.24,1.05-4.66,3.36h-3.24c.42-4.41,3.53-6.47,8.19-6.47,5.17,0,7.98,2.56,7.98,7.35v14.53h-3.23l-.25-2.6ZM244.36,30.27c2.9,0,5-1.51,5-3.82,0-2.18-1.93-3.61-4.79-3.61-2.6,0-4.45,1.18-4.45,3.74s1.85,3.7,4.24,3.7Z"/>
  <path class="cls-1" d="M252.93,38.5l3.11-1.26c1.51-.59,2.1-1.34,2.1-3.4V11.37h3.65v22.68c0,3.07-1.26,5.12-4.5,6.34l-3.11,1.22-1.26-3.11ZM259.98,3.39c1.34,0,2.31.92,2.31,2.31s-.97,2.31-2.31,2.31-2.31-.97-2.31-2.31.97-2.31,2.31-2.31Z"/>
  <path class="cls-1" d="M266.03,22.12c0-6.68,3.74-11.17,10.8-11.17,5.71,0,9.66,3.07,9.75,9.16h-3.36c-.25-3.78-2.65-5.84-6.51-5.84-5.21,0-7.39,3.78-7.01,8.82,1.13-2.77,3.53-3.78,6.01-3.78,1.18,0,2.44.21,3.57.71v3.15c-1.3-.59-2.69-.88-4.03-.88-2.65,0-4.87,1.22-4.87,3.23,0,2.23,2.52,4.45,6.89,4.45,3.11,0,5.63-1.09,8.28-3.02v3.49c-1.89,1.43-4.71,2.81-8.7,2.81-7.18,0-10.8-4.62-10.8-11.13Z"/>
  <path class="cls-1" d="M302.07,30.19c-1.22,1.93-3.44,3.07-6.26,3.07-3.95,0-6.93-2.31-6.93-6.47,0-4.41,3.23-6.51,7.23-6.51,2.39,0,4.54.8,5.8,2.44v-4.41c0-2.77-1.51-4.29-4.62-4.29-2.69,0-4.24,1.05-4.66,3.36h-3.24c.42-4.41,3.53-6.47,8.19-6.47,5.17,0,7.98,2.56,7.98,7.35v14.53h-3.23l-.25-2.6ZM296.9,30.27c2.9,0,5-1.51,5-3.82,0-2.18-1.93-3.61-4.79-3.61-2.6,0-4.45,1.18-4.45,3.74s1.85,3.7,4.24,3.7Z"/>
  <path class="cls-1" d="M310.68,11.37h3.66v4.87c1.09-3.19,3.57-5.38,7.35-5.38,4.16,0,6.6,2.77,6.6,7.18v14.74h-3.66v-13.4c0-3.36-1.47-5.25-4.37-5.25-3.49,0-5.92,2.73-5.92,6.34v12.31h-3.66V11.37Z"/>
  <path class="cls-1" d="M331.84,30.48c0-1.55,1.09-2.65,2.6-2.65s2.6,1.09,2.6,2.65-1.09,2.6-2.6,2.6-2.6-1.09-2.6-2.6Z"/>
</svg>